<svg xmlns="http://www.w3.org/2000/svg" width="56" height="56" viewBox="0 0 56 56">
    <path fill="#AC53FF" fill-rule="nonzero" d="M49.21 20.588h-3.789v-7.412c0-.682-.565-1.235-1.263-1.235s-1.263.553-1.263 1.235v5.169a3.822 3.822 0 0 0-1.263-.227h-3.79c0-2.047-1.696-3.706-3.79-3.706h-3.789v-3.706c0-2.047-1.696-3.706-3.79-3.706H8.79C6.697 7 5 8.66 5 10.706v34.588C5 47.341 6.697 49 8.79 49h17.684c2.093 0 3.79-1.66 3.79-3.706V44.06h10.104c2.79 0 5.053-2.212 5.053-4.941V32.94h3.79c2.092 0 3.789-1.659 3.789-3.706v-4.94c0-2.048-1.697-3.707-3.79-3.707zm-7.578 0c.697 0 1.263.553 1.263 1.236v9.882c0 .682-.566 1.235-1.263 1.235h-3.79V20.588h3.79zm-7.58-3.706c.698 0 1.264.553 1.264 1.236v17.294c0 .682-.566 1.235-1.263 1.235h-3.79V16.882h3.79zm6.316 24.706H30.263v-2.47h3.79c2.093 0 3.79-1.66 3.79-3.706h3.789a3.822 3.822 0 0 0 1.263-.228v3.934c0 1.364-1.131 2.47-2.527 2.47zm10.106-12.353c0 .683-.566 1.236-1.263 1.236h-3.79v-7.412h3.79c.697 0 1.263.553 1.263 1.235v4.941zm-32.842-2.47c-4.186 0-7.58-3.319-7.58-7.412s3.394-7.412 7.58-7.412c4.185 0 7.579 3.319 7.579 7.412-.005 4.092-3.395 7.408-7.58 7.412zm0-12.353c-2.79 0-5.053 2.212-5.053 4.94 0 2.73 2.262 4.942 5.053 4.942 2.79 0 5.052-2.212 5.052-4.941 0-2.729-2.262-4.941-5.052-4.941zm0 27.176c-2.093 0-3.79-1.659-3.79-3.706 0-2.046 1.697-3.706 3.79-3.706 2.092 0 3.79 1.66 3.79 3.706 0 2.047-1.698 3.706-3.79 3.706zm0-4.94c-.698 0-1.264.552-1.264 1.234 0 .683.566 1.236 1.264 1.236.697 0 1.263-.553 1.263-1.236 0-.682-.566-1.235-1.263-1.235z"/>
</svg>
