<svg xmlns="http://www.w3.org/2000/svg" width="56" height="56" viewBox="0 0 56 56">
    <path fill="#1077ED" fill-rule="nonzero" d="M51.665 19.653a6.92 6.92 0 0 1-.551 5.514l-3.559 6.276v6.462C44.706 44.54 36.912 49 28.202 49S11.669 44.542 8.819 37.906v-6.561l-3.783-5.986a6.907 6.907 0 0 1-.734-5.658 6.953 6.953 0 0 1 3.779-4.29l17.16-7.784a7.005 7.005 0 0 1 5.85.026l16.886 7.843a6.972 6.972 0 0 1 3.688 4.157zM12.987 34.115c-.78 0-1.412.633-1.412 1.412v.425c0 .78.632 1.412 1.412 1.412l30.401-.002a1.413 1.413 0 0 0 1.412-1.426l-.004-.424a1.412 1.412 0 0 0-1.412-1.398l-30.397.001zm13.107-4.064a2.824 2.824 0 0 0 3.809.035c1.94-1.74 3.132-3.473 3.574-5.2l1.582-6.217-7.223-3.244-6.895 3.235 1.437 6.226c.441 1.548 1.68 3.27 3.716 5.165zM28 18l1.365 2.447 2.635.608-1.791 2.12.264 2.824L28 24.863 25.529 26l.264-2.824L24 21.056l2.636-.609L28 18z"/>
</svg>
