<svg xmlns="http://www.w3.org/2000/svg" width="36" height="36" viewBox="0 0 36 36">
    <path fill="#FFF" fill-rule="nonzero" d="M3.938 28A.938.938 0 0 1 3 27.062V12.107c0-.517.42-.937.938-.937h5.625c.517 0 .937.42.937.937v14.955c0 .518-.42.938-.937.938H3.938zm25.6-16.715c1.908 0 3.462 1.54 3.462 3.43 0 .26-.03.519-.089.772l-2.001 9.097c-.556 2.01-2.415 3.415-4.521 3.415h-9.326c-2.585 0-4.688-2.082-4.688-4.642V13.64c0-1.148.427-2.251 1.202-3.106l7.476-8.227a.941.941 0 0 1 .924-.279l1.377.34a2.782 2.782 0 0 1 1.899 1.595c.35.8.307 1.698-.122 2.46l-1.953 3.483a.906.906 0 0 0 .012.922.922.922 0 0 0 .809.457h5.538z"/>
</svg>
