<svg xmlns="http://www.w3.org/2000/svg" width="45" height="45" viewBox="0 0 26 30">
    <defs>
        <filter id="a" width="118.7%" height="144.9%" x="-9.3%" y="-22.4%" filterUnits="objectBoundingBox">
            <feOffset dy="8" in="SourceAlpha" result="shadowOffsetOuter1"/>
            <feGaussianBlur in="shadowOffsetOuter1" result="shadowBlurOuter1" stdDeviation="5"/>
            <feColorMatrix in="shadowBlurOuter1" result="shadowMatrixOuter1"
                           values="0 0 0 0 0 0 0 0 0 0 0 0 0 0 0 0 0 0 0.1 0"/>
            <feMerge>
                <feMergeNode in="shadowMatrixOuter1"/>
                <feMergeNode in="SourceGraphic"/>
            </feMerge>
        </filter>
    </defs>
    <path fill="#FFF" fill-rule="nonzero"
          d="M22.65 8.648c.467 1.192.704 2.458.7 3.735a8.694 8.694 0 0 1-2.08 5.608l-8.611 9.144-6.114-6.483 19.44-19.01-1.38-1.34-3.198 3.156C16.38-1.277 8.382-1.132 3.54 3.783A12.227 12.227 0 0 0 .023 11.68v.95c.07 2.2.826 4.326 2.168 6.093 0 0 .972-1.074 1.36-1.416a8.66 8.66 0 0 1-1.574-4.753v-.798C2.322 5.99 7.38 1.59 13.274 1.928a10.81 10.81 0 0 1 6.733 2.851L.305 24.065l1.37 1.34 3.5-3.403 7.484 7.946 10.07-10.712a10.6 10.6 0 0 0 2.565-6.853 12.032 12.032 0 0 0-1.137-5.142s-.884.789-1.506 1.407z"
          filter="url(#a)"/>
</svg>
