<svg xmlns="http://www.w3.org/2000/svg" width="56" height="56" viewBox="0 0 56 56">
    <path fill="#6B6B6B" fill-rule="nonzero" d="M53.997 14c1.104 0 2.003.91 2.003 2.03v19.849c0 1.119-.899 2.03-2.003 2.03h-6.912C46.407 40.268 44.254 42 41.708 42c-2.545 0-4.698-1.73-5.377-4.092h-4.906c-1.105 0-2.003-.91-2.003-2.03v-7.583c0-1.085.856-2.132 1.908-2.333l5.973-1.143c.798-.153 1.844-.866 2.284-1.557l4.899-7.694c.56-.88 1.808-1.568 2.84-1.568h6.671zM41.708 39.144c1.536 0 2.782-1.263 2.782-2.82s-1.246-2.82-2.782-2.82-2.782 1.263-2.782 2.82 1.246 2.82 2.782 2.82zm12.23-15.601v-5.497c0-.741-.598-1.348-1.33-1.348h-4.125c-.732 0-1.642.518-2.024 1.15l-3.55 5.892c-.38.633-.094 1.151.638 1.151h9.061c.732 0 1.33-.607 1.33-1.348zM24.67 25.962c1.052.201 1.908 1.248 1.908 2.333v7.584c0 1.119-.898 2.03-2.002 2.03h-4.907C18.99 40.268 16.838 42 14.292 42c-2.545 0-4.698-1.73-5.377-4.092H2.003c-1.104 0-2.003-.91-2.003-2.03V16.03C0 14.91.899 14 2.003 14h6.67c1.033 0 2.281.689 2.841 1.568l4.899 7.694c.44.69 1.486 1.404 2.284 1.557l5.973 1.143zm-21.278-1.07h9.06c.733 0 1.02-.519.638-1.151l-3.55-5.892c-.38-.633-1.292-1.15-2.023-1.15H3.392c-.732 0-1.33.606-1.33 1.348v5.496c0 .742.598 1.348 1.33 1.348zm10.9 14.252c1.536 0 2.782-1.263 2.782-2.82s-1.246-2.82-2.782-2.82-2.782 1.263-2.782 2.82 1.246 2.82 2.782 2.82zM24.57 24.497a.797.797 0 0 1-.765-.827l.136-4.333a.796.796 0 0 1 .817-.775c.436.014.779.384.765.827l-.136 4.333a.796.796 0 0 1-.79.776h-.027zm4.406-5.189c.39.199.548.68.353 1.076l-1.817 3.671a.79.79 0 0 1-1.062.358.806.806 0 0 1-.352-1.076l1.816-3.671a.787.787 0 0 1 1.062-.358zm3.074 3.5a.808.808 0 0 1-.17 1.121l-3.033 2.251a.78.78 0 0 1-1.106-.173.809.809 0 0 1 .171-1.12l3.032-2.251a.784.784 0 0 1 1.106.173z"/>
</svg>
