<svg xmlns="http://www.w3.org/2000/svg" width="56" height="56" viewBox="0 0 56 56">
    <path fill="#FEA435" fill-rule="nonzero" d="M24.713 46H7.178c-1.683 0-2.732-1.843-1.87-3.305l9.054-15.018a2.17 2.17 0 0 1 2.992-.758c5.882 3.548 9.535 10.021 9.535 16.893A2.18 2.18 0 0 1 24.713 46zm-2.176-30.625c0-2.412 1.952-4.375 4.352-4.375 2.399 0 4.351 1.963 4.351 4.375s-1.952 4.375-4.351 4.375c-2.4 0-4.352-1.963-4.352-4.375zm29.826 29.984a2.167 2.167 0 0 1-3.077 0l-8.704-8.75a2.192 2.192 0 0 1-.638-1.547v-3.469l-4.352 4.375v7.844A2.18 2.18 0 0 1 33.416 46a2.18 2.18 0 0 1-2.176-2.188v-8.75c0-.58.23-1.136.638-1.546l7.165-7.203-4.675-4.7-3.24 9.767a2.168 2.168 0 0 1-2.752 1.382A2.188 2.188 0 0 1 27 29.995c4.588-13.837 4.39-13.183 4.39-13.183a2.189 2.189 0 0 1 2.025-1.437h13.056a2.18 2.18 0 0 1 2.176 2.188v4.375a2.18 2.18 0 0 1-2.176 2.187 2.18 2.18 0 0 1-2.176-2.188V19.75H38.67l4.987 5.013c.41.411.64.982.64 1.55v7.844l8.067 8.109c.85.854.85 2.239 0 3.093z"/>
</svg>
